<!-- icon666.com - MILLIONS vector ICONS FREE --><svg id="Layer_1" viewBox="0 0 512 512" xmlns="http://www.w3.org/2000/svg" data-name="Layer 1"><path d="m294.813 163.18a6 6 0 0 0 6-6v-68.38h35.8v68.38a6 6 0 0 0 6 6h30.364l-54.265 67.809-54.258-67.809zm19.211 81.16a6 6 0 0 0 9.369 0l66.753-83.41a6.009 6.009 0 0 0 -4.69-9.752h-36.841v-68.378a6 6 0 0 0 -6-6h-47.8a6 6 0 0 0 -6 6v68.38h-36.849a6.006 6.006 0 0 0 -4.68 9.752l66.738 83.41zm129.593 203.327a31.741 31.741 0 1 1 -31.741-31.741 31.782 31.782 0 0 1 31.741 31.741zm-177.431 0a31.739 31.739 0 1 1 -31.742-31.741 31.783 31.783 0 0 1 31.742 31.741zm-125.012-284.28 44.932 171.152h259.21a20.165 20.165 0 0 0 19.739-15.219l34.218-130.343a20.4 20.4 0 0 0 -19.73-25.59h-24.169c-3.147 72.664-63.242 130.8-136.661 130.8s-133.508-58.137-136.66-130.8zm177.539-130.8a124.8 124.8 0 1 0 124.8 124.8 124.948 124.948 0 0 0 -124.8-124.8zm-151.4 313.955h278a32.021 32.021 0 0 0 31.34-24.184l34.23-130.338a32.408 32.408 0 0 0 -31.34-40.63h-24.169c-3.147-72.658-63.242-130.8-136.661-130.8s-133.508 58.143-136.66 130.8h-44.04l-13.767-52.471a42.069 42.069 0 0 0 -41.172-31.751h-77.074a6 6 0 1 0 0 12h77.07a30.2 30.2 0 0 1 29.562 22.8l61.068 232.571h-6.388a36.486 36.486 0 1 0 0 72.971h49.81a43.739 43.739 0 1 0 34.638 0h142.797a43.743 43.743 0 1 0 34.628 0h1.661a29.4 29.4 0 0 1 25.1 13.129l8.959 12.9a6 6 0 0 0 9.851-6.851l-8.95-12.889a41.467 41.467 0 0 0 -34.959-18.291h-263.532a24.483 24.483 0 1 1 0-48.965z" fill="#ed1c24" fill-rule="evenodd"></path></svg>