<!-- icon666.com - MILLIONS vector ICONS FREE --><svg id="Layer_1" enable-background="new 0 0 65 65" viewBox="0 0 65 65" xmlns="http://www.w3.org/2000/svg"><g><path d="m60.02925 21.0078h-4.82908c.05853-.50726.08783-1.01457.08783-1.53165 0-7.84356-6.3802-14.21405-14.21405-14.21405s-14.21405 6.37049-14.21405 14.21404c0 .51708.0293 1.02439.08783 1.53165h-9.55086l-.57555-2.29256c-.50731-1.98043-2.27309-3.35596-4.31206-3.35596h-.51702c-.42925-1.41459-1.71701-2.44869-3.25843-2.44869h-4.81932c-1.88284 0-3.41449 1.53165-3.41449 3.42426 0 1.88284 1.53165 3.41449 3.41449 3.41449h4.81931c1.54142 0 2.82917-1.0341 3.25843-2.43892h.51702c1.14146 0 2.1365.77068 2.41945 1.88284l.76091 3.02424v.00977l6.14613 23.95998-2.0585 3.22913c-1.33652 2.08773.17559 4.79008 2.62428 4.79008h2.40969c-.30242.53655-.47802 1.1414-.47802 1.79502 0 2.05849 1.67795 3.73645 3.74615 3.73645 2.05844 0 3.73645-1.67795 3.73645-3.73645 0-.65362-.18536-1.25846-.47802-1.79502h14.36035c-.29266.53655-.47802 1.1414-.47802 1.79502 0 2.05849 1.68772 3.73645 3.74621 3.73645 2.0682 0 3.73639-1.67795 3.73639-3.73645 0-.65362-.1756-1.25846-.46825-1.79502h2.49746c.54631 0 .97557-.42925.97557-.97557 0-.53655-.42925-.97557-.97557-.97557h-32.33037c-.90727 0-1.48282-.98533-.98533-1.78531l1.99997-3.1316h32.15472c2.03897 0 3.82427-1.38529 4.33153-3.36567l4.45836-17.39441c.71214-2.80965-1.39506-5.57052-4.33154-5.57052zm-51.29544-3.20961h-4.81932c-.80968 0-1.46335-.66338-1.46335-1.46335 0-.80974.65367-1.47312 1.46335-1.47312h4.81931c.80974 0 1.46335.66338 1.46335 1.47312.00001.79997-.6536 1.46335-1.46334 1.46335zm40.23252 36.40825c.98528 0 1.78525.80968 1.78525 1.79502 0 .98533-.79998 1.78531-1.78525 1.78531-.98533 0-1.79507-.79997-1.79507-1.78531s.80974-1.79502 1.79507-1.79502zm-20.88697 0c.98533 0 1.78531.80968 1.78531 1.79502 0 .98533-.79997 1.78531-1.78531 1.78531-.9951 0-1.79501-.79997-1.79501-1.78531s.79991-1.79502 1.79501-1.79502zm12.99459-46.99321c6.76069 0 12.26291 5.50222 12.26291 12.26291s-5.50222 12.25315-12.26291 12.25315-12.26291-5.49246-12.26291-12.25315 5.50222-12.26291 12.26291-12.26291zm21.39423 18.88707-4.45836 17.39436c-.28289 1.11216-1.28776 1.8926-2.43892 1.8926h-31.93037l-5.74612-22.42833h9.41427c1.56089 6.15584 7.13141 10.7215 13.76527 10.7215s12.20438-4.56566 13.76527-10.7215h5.19004c1.64871 0 2.84864 1.56095 2.43892 3.14137z" fill="#387bfe" style="fill: rgb(5, 5, 5);"></path><g fill="#8dd1fe"><path d="m10.19716 16.33484c0 .79997-.65361 1.46335-1.46335 1.46335h-4.81932c-.80968 0-1.46335-.66338-1.46335-1.46335 0-.80974.65367-1.47312 1.46335-1.47312h4.81931c.80975 0 1.46336.66338 1.46336 1.47312z" fill="#8dd1fe" style="fill: rgb(255, 255, 255);"></path><path d="m29.86467 56.00146c0 .98533-.79997 1.78531-1.78531 1.78531-.9951 0-1.79501-.79997-1.79501-1.78531s.79991-1.79502 1.79501-1.79502c.98534 0 1.78531.80968 1.78531 1.79502z" fill="#8dd1fe" style="fill: rgb(255, 255, 255);"></path><path d="m50.75158 56.00146c0 .98533-.79998 1.78531-1.78525 1.78531-.98533 0-1.79507-.79997-1.79507-1.78531s.80974-1.79502 1.79507-1.79502c.98528 0 1.78525.80968 1.78525 1.79502z" fill="#8dd1fe" style="fill: rgb(255, 255, 255);"></path><path d="m53.33686 19.47614c0 6.76069-5.50222 12.25315-12.26291 12.25315s-12.26291-5.49246-12.26291-12.25315 5.50222-12.26291 12.26291-12.26291 12.26291 5.50223 12.26291 12.26291z" fill="#8dd1fe" style="fill: rgb(255, 255, 255);"></path></g><path d="m41.06858 23.83468c-.9327 0-1.692-.75883-1.692-1.692 0-.53875-.43634-.97557-.97557-.97557s-.97557.43682-.97557.97557c0 1.66872 1.13401 3.06402 2.66757 3.49369v.92591c0 .53876.43634.97557.97557.97557s.97557-.43681.97557-.97557v-.92543c1.53689-.42919 2.67424-1.82491 2.67424-3.49416 0-2.00925-1.6377-3.64362-3.64981-3.64362-.9327 0-1.692-.75883-1.692-1.692s.7593-1.692 1.692-1.692c.93651 0 1.69867.75883 1.69867 1.692 0 .53876.43634.97557.97557.97557s.97557-.43682.97557-.97557c0-1.66926-1.13735-3.06497-2.67424-3.49416v-.92591c0-.53875-.43634-.97557-.97557-.97557s-.97557.43682-.97557.97557v.92639c-1.53356.42967-2.66757 1.82496-2.66757 3.49368 0 2.00878 1.63389 3.64314 3.64314 3.64314.93651 0 1.69867.7593 1.69867 1.69248s-.76216 1.69199-1.69867 1.69199z" fill="#387bfe" style="fill: rgb(5, 5, 5);"></path></g></svg>