<!-- icon666.com - MILLIONS vector ICONS FREE --><svg version="1.1" id="Capa_1" xmlns="http://www.w3.org/2000/svg" xmlns:xlink="http://www.w3.org/1999/xlink" x="0px" y="0px" viewBox="0 0 50.25 50.25" style="enable-background:new 0 0 50.25 50.25;" xml:space="preserve"><g><path style="fill:#010002;" d="M42.625,14.25h-35c-1.657,0-3-1.343-3-3s1.343-3,3-3h35c1.657,0,3,1.343,3,3 S44.282,14.25,42.625,14.25z"></path><g><path style="fill:#010002;" d="M30.625,50.25h-10c-7.196,0-14-6.804-14-14v-17c0-1.657,1.343-3,3-3s3,1.343,3,3v17 c0,3.888,4.112,8,8,8h10c3.706,0,6-4.152,6-8v-17c0-1.657,1.343-3,3-3s3,1.343,3,3v17C42.625,43.132,38.137,50.25,30.625,50.25z"></path><path style="fill:#010002;" d="M19.625,40.25c-1.657,0-3-1.343-3-3v-17c0-1.657,1.343-3,3-3s3,1.343,3,3v17 C22.625,38.907,21.282,40.25,19.625,40.25z"></path><path style="fill:#010002;" d="M29.625,40.25c-1.657,0-3-1.343-3-3v-17c0-1.657,1.343-3,3-3s3,1.343,3,3v17 C32.625,38.907,31.282,40.25,29.625,40.25z"></path></g><path style="fill:#010002;" d="M30.792,12.25c-1.657,0-3-1.343-3-3c0-1.792-1.458-3.25-3.25-3.25s-3.25,1.458-3.25,3.25 c0,1.657-1.343,3-3,3s-3-1.343-3-3c0-5.101,4.149-9.25,9.25-9.25s9.25,4.149,9.25,9.25C33.792,10.907,32.449,12.25,30.792,12.25z"></path></g></svg>