<!-- icon666.com - MILLIONS vector ICONS FREE --><svg id="Layer_1" viewBox="0 0 512 512" xmlns="http://www.w3.org/2000/svg" data-name="Layer 1"><path d="m318.712 92.4 54.26 67.809h-30.359a6 6 0 0 0 -6 6v68.379h-35.8v-68.379a6 6 0 0 0 -6-6h-30.36zm-66.747 79.81h36.846v68.379a6 6 0 0 0 6 6h47.8a6 6 0 0 0 6-6v-68.379h36.851a6 6 0 0 0 4.68-9.752l-66.752-83.41a5.985 5.985 0 0 0 -9.355 0l-66.752 83.41a6 6 0 0 0 4.68 9.752zm191.651 275.457a31.742 31.742 0 1 1 -31.741-31.741 31.782 31.782 0 0 1 31.741 31.741zm-177.432 0a31.741 31.741 0 1 1 -31.741-31.741 31.779 31.779 0 0 1 31.741 31.741zm-125.012-284.28 44.933 171.152h259.209a20.173 20.173 0 0 0 19.739-15.219l34.223-130.343a20.407 20.407 0 0 0 -19.73-25.59h-24.174c-3.146 72.664-63.237 130.8-136.66 130.8s-133.512-58.136-136.655-130.8zm177.54-130.8a124.8 124.8 0 1 0 124.8 124.8 124.943 124.943 0 0 0 -124.8-124.8zm-151.4 313.955h278a32.02 32.02 0 0 0 31.34-24.184l34.235-130.338a32.415 32.415 0 0 0 -31.341-40.63h-24.174c-3.146-72.658-63.237-130.8-136.66-130.8s-133.512 58.142-136.655 130.8h-44.046l-13.766-52.471a42.07 42.07 0 0 0 -41.172-31.751h-77.073a6 6 0 1 0 0 12h77.07a30.2 30.2 0 0 1 29.561 22.8l61.072 232.572h-6.393a36.486 36.486 0 1 0 0 72.971h49.811a43.739 43.739 0 1 0 34.638 0h142.796a43.744 43.744 0 1 0 34.629 0h1.661a29.392 29.392 0 0 1 25.1 13.129l8.959 12.9a6 6 0 0 0 9.851-6.851l-8.955-12.889a41.465 41.465 0 0 0 -34.958-18.291h-263.529a24.483 24.483 0 1 1 0-48.965z" fill="#006df0" fill-rule="evenodd" style="fill: rgb(8, 8, 8);"></path></svg>