<!-- icon666.com - MILLIONS vector ICONS FREE --><svg fill="none" viewBox="0 0 24 24" xmlns="http://www.w3.org/2000/svg"><g fill="rgb(0,0,0)"><path d="m12.75 1c0-.414214-.3358-.75-.75-.75s-.75.335786-.75.75v2c0 .41421.3358.75.75.75s.75-.33579.75-.75z"></path><path d="m4.75216 3.69149c-.2929-.29289-.76777-.29289-1.06066 0-.2929.2929-.2929.76777 0 1.06067l1.41421 1.41421c.29289.29289.76777.29289 1.06066 0s.29289-.76777 0-1.06066z"></path><path d="m20.3085 4.75216c.2929-.2929.2929-.76777 0-1.06066-.2929-.2929-.7678-.2929-1.0607-.00001l-1.4142 1.41422c-.2929.29289-.2929.76777 0 1.06066s.7678.29289 1.0607 0z"></path><path clip-rule="evenodd" d="m12 5.25c-3.72792 0-6.75 3.02208-6.75 6.75 0 3.7279 3.02208 6.75 6.75 6.75 3.7279 0 6.75-3.0221 6.75-6.75 0-3.72792-3.0221-6.75-6.75-6.75zm-5.25 6.75c0-2.8995 2.3505-5.25 5.25-5.25s5.25 2.3505 5.25 5.25-2.3505 5.25-5.25 5.25-5.25-2.3505-5.25-5.25z" fill-rule="evenodd"></path><path d="m1 11.25c-.414214 0-.75.3358-.75.75s.335786.75.75.75h2c.41421 0 .75-.3358.75-.75s-.33579-.75-.75-.75z"></path><path d="m21 11.25c-.4142 0-.75.3358-.75.75s.3358.75.75.75h2c.4142 0 .75-.3358.75-.75s-.3358-.75-.75-.75z"></path><path d="m6.16637 18.8943c.29289-.2929.29289-.7678 0-1.0607s-.76777-.2929-1.06066 0l-1.41421 1.4142c-.2929.2929-.2929.7678 0 1.0607.29289.2929.76776.2929 1.06066 0z"></path><path d="m18.8943 17.8336c-.2929-.2929-.7678-.2929-1.0607 0s-.2929.7678 0 1.0607l1.4142 1.4142c.2929.2929.7678.2929 1.0607 0s.2929-.7678 0-1.0607z"></path><path d="m12.75 21c0-.4142-.3358-.75-.75-.75s-.75.3358-.75.75v2c0 .4142.3358.75.75.75s.75-.3358.75-.75z"></path></g></svg>